<svg width="61" height="74" viewBox="0 0 61 74" fill="none" xmlns="http://www.w3.org/2000/svg">
<path d="M18.0638 38.5H32.937C34.066 38.5 34.9544 37.5634 34.7294 36.457C34.1084 33.4024 32.0798 28 25.5004 28C18.921 28 16.8925 33.4024 16.2714 36.457C16.0464 37.5634 16.9348 38.5 18.0638 38.5Z" stroke="#343447" stroke-width="1.5" stroke-linecap="round" stroke-linejoin="round"/>
<path d="M38 28C42.1576 28 43.8604 32.2958 44.5478 35.392C44.919 37.064 43.5666 38.5 41.8538 38.5H40" stroke="#343447" stroke-width="1.5" stroke-linecap="round" stroke-linejoin="round"/>
<path d="M25.5 20.5C28.5376 20.5 31 18.0376 31 15C31 11.9624 28.5376 9.5 25.5 9.5C22.4624 9.5 20 11.9624 20 15C20 18.0376 22.4624 20.5 25.5 20.5Z" stroke="#343447" stroke-width="1.5" stroke-linecap="round" stroke-linejoin="round"/>
<path d="M36 20.5C39.0376 20.5 41 18.0376 41 15C41 11.9624 39.0376 9.5 36 9.5" stroke="#343447" stroke-width="1.5" stroke-linecap="round" stroke-linejoin="round"/>
<path d="M6.868 68.144C5.72667 68.144 4.75067 67.9093 3.94 67.44C3.12933 66.9707 2.50533 66.304 2.068 65.44C1.64133 64.5653 1.428 63.536 1.428 62.352C1.428 61.168 1.64133 60.144 2.068 59.28C2.50533 58.416 3.12933 57.7493 3.94 57.28C4.75067 56.8107 5.72667 56.576 6.868 56.576C7.49733 56.576 8.1 56.6613 8.676 56.832C9.26267 57.0027 9.76933 57.248 10.196 57.568C10.4307 57.7173 10.564 57.8987 10.596 58.112C10.6387 58.3147 10.6067 58.5013 10.5 58.672C10.404 58.832 10.26 58.9387 10.068 58.992C9.876 59.0453 9.66267 58.992 9.428 58.832C9.06533 58.5653 8.67067 58.368 8.244 58.24C7.828 58.112 7.38533 58.048 6.916 58.048C5.7 58.048 4.772 58.4213 4.132 59.168C3.492 59.9147 3.172 60.976 3.172 62.352C3.172 63.728 3.492 64.7947 4.132 65.552C4.772 66.2987 5.7 66.672 6.916 66.672C7.38533 66.672 7.83333 66.608 8.26 66.48C8.69733 66.352 9.108 66.1493 9.492 65.872C9.72667 65.7227 9.93467 65.6747 10.116 65.728C10.2973 65.7707 10.436 65.872 10.532 66.032C10.628 66.192 10.66 66.3733 10.628 66.576C10.596 66.768 10.484 66.9333 10.292 67.072C9.844 67.424 9.32133 67.6907 8.724 67.872C8.13733 68.0533 7.51867 68.144 6.868 68.144ZM14.9605 68.144C14.1285 68.144 13.4992 67.904 13.0725 67.424C12.6565 66.944 12.4485 66.24 12.4485 65.312V57.424C12.4485 56.88 12.7152 56.608 13.2485 56.608C13.7925 56.608 14.0645 56.88 14.0645 57.424V65.216C14.0645 66.272 14.4912 66.8 15.3445 66.8C15.4405 66.8 15.5258 66.7947 15.6005 66.784C15.6752 66.7733 15.7498 66.768 15.8245 66.768C15.9525 66.7573 16.0432 66.7947 16.0965 66.88C16.1498 66.9547 16.1765 67.1147 16.1765 67.36C16.1765 67.7973 15.9738 68.048 15.5685 68.112C15.4618 68.1227 15.3552 68.128 15.2485 68.128C15.1525 68.1387 15.0565 68.144 14.9605 68.144ZM18.1391 58.448C17.8191 58.448 17.5685 58.368 17.3871 58.208C17.2165 58.048 17.1311 57.824 17.1311 57.536C17.1311 56.928 17.4671 56.624 18.1391 56.624C18.8111 56.624 19.1471 56.928 19.1471 57.536C19.1471 58.144 18.8111 58.448 18.1391 58.448ZM18.1391 68.096C17.6058 68.096 17.3391 67.8027 17.3391 67.216V60.976C17.3391 60.4 17.6058 60.112 18.1391 60.112C18.6831 60.112 18.9551 60.4 18.9551 60.976V67.216C18.9551 67.8027 18.6831 68.096 18.1391 68.096ZM24.8938 68.144C23.6138 68.144 22.6058 67.7867 21.8698 67.072C21.1338 66.3467 20.7658 65.36 20.7658 64.112C20.7658 63.312 20.9258 62.608 21.2458 62C21.5764 61.3813 22.0298 60.9013 22.6058 60.56C23.1818 60.2187 23.8431 60.048 24.5898 60.048C25.6671 60.048 26.5151 60.3947 27.1338 61.088C27.7524 61.7707 28.0618 62.7147 28.0618 63.92C28.0618 64.2827 27.8484 64.464 27.4218 64.464H22.3338C22.4511 66.0853 23.3098 66.896 24.9098 66.896C25.2298 66.896 25.5658 66.8587 25.9178 66.784C26.2698 66.6987 26.6111 66.5493 26.9418 66.336C27.1658 66.208 27.3578 66.1653 27.5178 66.208C27.6884 66.24 27.8111 66.3307 27.8858 66.48C27.9604 66.6187 27.9711 66.7787 27.9178 66.96C27.8751 67.1307 27.7524 67.28 27.5498 67.408C27.1871 67.6533 26.7604 67.84 26.2698 67.968C25.7898 68.0853 25.3311 68.144 24.8938 68.144ZM24.6538 61.184C23.9818 61.184 23.4484 61.392 23.0538 61.808C22.6591 62.224 22.4191 62.7787 22.3338 63.472H26.7018C26.6698 62.7467 26.4778 62.1867 26.1258 61.792C25.7738 61.3867 25.2831 61.184 24.6538 61.184ZM30.6235 68.112C30.0902 68.112 29.8235 67.84 29.8235 67.296V60.896C29.8235 60.352 30.0848 60.08 30.6075 60.08C31.1302 60.08 31.3915 60.352 31.3915 60.896V61.488C31.6582 61.0187 32.0208 60.6613 32.4795 60.416C32.9488 60.1707 33.4715 60.048 34.0475 60.048C35.8928 60.048 36.8155 61.0933 36.8155 63.184V67.296C36.8155 67.84 36.5488 68.112 36.0155 68.112C35.4715 68.112 35.1995 67.84 35.1995 67.296V63.28C35.1995 62.608 35.0662 62.1173 34.7995 61.808C34.5435 61.4987 34.1382 61.344 33.5835 61.344C32.9328 61.344 32.4102 61.552 32.0155 61.968C31.6315 62.3733 31.4395 62.912 31.4395 63.584V67.296C31.4395 67.84 31.1675 68.112 30.6235 68.112ZM42.3703 68.144C41.3889 68.144 40.6583 67.8933 40.1783 67.392C39.6983 66.8907 39.4583 66.1653 39.4583 65.216V61.44H38.4983C38.0502 61.44 37.8262 61.232 37.8262 60.816C37.8262 60.4 38.0502 60.192 38.4983 60.192H39.4583V58.544C39.4583 58 39.7303 57.728 40.2743 57.728C40.8076 57.728 41.0743 58 41.0743 58.544V60.192H42.9463C43.3943 60.192 43.6183 60.4 43.6183 60.816C43.6183 61.232 43.3943 61.44 42.9463 61.44H41.0743V65.088C41.0743 65.6533 41.1916 66.08 41.4263 66.368C41.6716 66.656 42.0663 66.8 42.6102 66.8C42.8023 66.8 42.9676 66.784 43.1063 66.752C43.2449 66.7093 43.3676 66.6827 43.4743 66.672C43.5916 66.672 43.6876 66.7147 43.7623 66.8C43.8369 66.8747 43.8743 67.024 43.8743 67.248C43.8743 67.4187 43.8423 67.5733 43.7783 67.712C43.7249 67.84 43.6236 67.9253 43.4743 67.968C43.3463 68.0213 43.1703 68.064 42.9463 68.096C42.7329 68.128 42.5409 68.144 42.3703 68.144ZM48.4719 68.144C47.1919 68.144 46.1839 67.7867 45.4479 67.072C44.7119 66.3467 44.3439 65.36 44.3439 64.112C44.3439 63.312 44.5039 62.608 44.8239 62C45.1545 61.3813 45.6079 60.9013 46.1839 60.56C46.7599 60.2187 47.4212 60.048 48.1679 60.048C49.2452 60.048 50.0932 60.3947 50.7119 61.088C51.3305 61.7707 51.6399 62.7147 51.6399 63.92C51.6399 64.2827 51.4265 64.464 50.9999 64.464H45.9119C46.0292 66.0853 46.8879 66.896 48.4879 66.896C48.8079 66.896 49.1439 66.8587 49.4959 66.784C49.8479 66.6987 50.1892 66.5493 50.5199 66.336C50.7439 66.208 50.9359 66.1653 51.0959 66.208C51.2665 66.24 51.3892 66.3307 51.4639 66.48C51.5385 66.6187 51.5492 66.7787 51.4959 66.96C51.4532 67.1307 51.3305 67.28 51.1279 67.408C50.7652 67.6533 50.3385 67.84 49.8479 67.968C49.3679 68.0853 48.9092 68.144 48.4719 68.144ZM48.2319 61.184C47.5599 61.184 47.0265 61.392 46.6319 61.808C46.2372 62.224 45.9972 62.7787 45.9119 63.472H50.2799C50.2479 62.7467 50.0559 62.1867 49.7039 61.792C49.3519 61.3867 48.8612 61.184 48.2319 61.184ZM56.1376 68.144C55.6683 68.144 55.183 68.0907 54.6816 67.984C54.1803 67.8773 53.727 67.696 53.3216 67.44C53.1403 67.3333 53.0283 67.2 52.9856 67.04C52.943 66.88 52.9536 66.7307 53.0176 66.592C53.0816 66.4533 53.183 66.3573 53.3216 66.304C53.471 66.24 53.6363 66.256 53.8176 66.352C54.2336 66.576 54.6336 66.736 55.0176 66.832C55.4016 66.928 55.7803 66.976 56.1536 66.976C56.719 66.976 57.1456 66.8747 57.4336 66.672C57.7216 66.4693 57.8656 66.1973 57.8656 65.856C57.8656 65.5787 57.7696 65.3653 57.5776 65.216C57.3856 65.056 57.0976 64.9333 56.7136 64.848L55.1936 64.544C53.8496 64.2667 53.1776 63.5733 53.1776 62.464C53.1776 61.728 53.471 61.1413 54.0576 60.704C54.6443 60.2667 55.4123 60.048 56.3616 60.048C57.3216 60.048 58.1483 60.2827 58.8416 60.752C59.0123 60.8587 59.1136 60.992 59.1456 61.152C59.1776 61.3013 59.1563 61.4453 59.0816 61.584C59.007 61.712 58.895 61.8027 58.7456 61.856C58.607 61.9093 58.4416 61.888 58.2496 61.792C57.9296 61.6 57.6096 61.4613 57.2896 61.376C56.9696 61.28 56.6603 61.232 56.3616 61.232C55.807 61.232 55.3856 61.3387 55.0976 61.552C54.8096 61.7547 54.6656 62.032 54.6656 62.384C54.6656 62.9173 55.0176 63.2587 55.7216 63.408L57.2416 63.712C57.935 63.8507 58.4576 64.0853 58.8096 64.416C59.1723 64.7467 59.3536 65.1947 59.3536 65.76C59.3536 66.5067 59.0603 67.0933 58.4736 67.52C57.887 67.936 57.1083 68.144 56.1376 68.144Z" fill="#343447"/>
</svg>
