<svg width="77" height="74" viewBox="0 0 77 74" fill="none" xmlns="http://www.w3.org/2000/svg">
<path d="M30 38.5H47C49.2092 38.5 51 36.7092 51 34.5V18L42.5 9.5H30C27.7909 9.5 26 11.2909 26 13.5V34.5C26 36.7092 27.7909 38.5 30 38.5Z" stroke="#343447" stroke-width="1.5" stroke-linecap="round" stroke-linejoin="round"/>
<path d="M50.5 18.5H42V10" stroke="#343447" stroke-width="1.5" stroke-linecap="round" stroke-linejoin="round"/>
<path d="M6.368 68.144C5.22667 68.144 4.25067 67.9093 3.44 67.44C2.62933 66.9707 2.00533 66.304 1.568 65.44C1.14133 64.5653 0.928 63.536 0.928 62.352C0.928 61.168 1.14133 60.144 1.568 59.28C2.00533 58.416 2.62933 57.7493 3.44 57.28C4.25067 56.8107 5.22667 56.576 6.368 56.576C6.99733 56.576 7.6 56.6613 8.176 56.832C8.76267 57.0027 9.26933 57.248 9.696 57.568C9.93067 57.7173 10.064 57.8987 10.096 58.112C10.1387 58.3147 10.1067 58.5013 10 58.672C9.904 58.832 9.76 58.9387 9.568 58.992C9.376 59.0453 9.16267 58.992 8.928 58.832C8.56533 58.5653 8.17067 58.368 7.744 58.24C7.328 58.112 6.88533 58.048 6.416 58.048C5.2 58.048 4.272 58.4213 3.632 59.168C2.992 59.9147 2.672 60.976 2.672 62.352C2.672 63.728 2.992 64.7947 3.632 65.552C4.272 66.2987 5.2 66.672 6.416 66.672C6.88533 66.672 7.33333 66.608 7.76 66.48C8.19733 66.352 8.608 66.1493 8.992 65.872C9.22667 65.7227 9.43467 65.6747 9.616 65.728C9.79733 65.7707 9.936 65.872 10.032 66.032C10.128 66.192 10.16 66.3733 10.128 66.576C10.096 66.768 9.984 66.9333 9.792 67.072C9.344 67.424 8.82133 67.6907 8.224 67.872C7.63733 68.0533 7.01867 68.144 6.368 68.144ZM14.778 68.144C13.9887 68.144 13.306 67.9787 12.73 67.648C12.154 67.3173 11.706 66.8533 11.386 66.256C11.0767 65.648 10.922 64.928 10.922 64.096C10.922 63.264 11.0767 62.5493 11.386 61.952C11.706 61.344 12.154 60.8747 12.73 60.544C13.306 60.2133 13.9887 60.048 14.778 60.048C15.546 60.048 16.218 60.2133 16.794 60.544C17.37 60.8747 17.818 61.344 18.138 61.952C18.458 62.5493 18.618 63.264 18.618 64.096C18.618 64.928 18.458 65.648 18.138 66.256C17.818 66.8533 17.37 67.3173 16.794 67.648C16.218 67.9787 15.546 68.144 14.778 68.144ZM14.778 66.896C15.4393 66.896 15.9727 66.656 16.378 66.176C16.7833 65.696 16.986 65.0027 16.986 64.096C16.986 63.1893 16.7833 62.5013 16.378 62.032C15.9727 61.552 15.4393 61.312 14.778 61.312C14.106 61.312 13.5673 61.552 13.162 62.032C12.7567 62.5013 12.554 63.1893 12.554 64.096C12.554 65.0027 12.7567 65.696 13.162 66.176C13.5673 66.656 14.106 66.896 14.778 66.896ZM24.6249 68.144C24.0382 68.144 23.5155 68.016 23.0569 67.76C22.5982 67.4933 22.2515 67.136 22.0169 66.688V67.296C22.0169 67.84 21.7555 68.112 21.2329 68.112C20.6995 68.112 20.4329 67.84 20.4329 67.296V57.424C20.4329 56.88 20.6995 56.608 21.2329 56.608C21.7769 56.608 22.0489 56.88 22.0489 57.424V61.456C22.2835 61.0293 22.6249 60.688 23.0729 60.432C23.5315 60.176 24.0489 60.048 24.6249 60.048C25.3182 60.048 25.9209 60.2133 26.4329 60.544C26.9555 60.8747 27.3555 61.344 27.6329 61.952C27.9209 62.5493 28.0649 63.264 28.0649 64.096C28.0649 64.928 27.9209 65.648 27.6329 66.256C27.3555 66.864 26.9555 67.3333 26.4329 67.664C25.9209 67.984 25.3182 68.144 24.6249 68.144ZM24.2249 66.896C24.8969 66.896 25.4302 66.656 25.8249 66.176C26.2302 65.696 26.4329 65.0027 26.4329 64.096C26.4329 63.1893 26.2302 62.5013 25.8249 62.032C25.4302 61.552 24.8969 61.312 24.2249 61.312C23.5529 61.312 23.0142 61.552 22.6089 62.032C22.2142 62.5013 22.0169 63.1893 22.0169 64.096C22.0169 65.0027 22.2142 65.696 22.6089 66.176C23.0142 66.656 23.5529 66.896 24.2249 66.896ZM30.702 68.112C30.158 68.112 29.886 67.84 29.886 67.296V60.896C29.886 60.352 30.1473 60.08 30.67 60.08C31.1927 60.08 31.454 60.352 31.454 60.896V61.584C31.6673 61.104 31.9873 60.736 32.414 60.48C32.8513 60.224 33.3793 60.0747 33.998 60.032C34.3927 60 34.606 60.2133 34.638 60.672C34.6807 61.1413 34.4513 61.3973 33.95 61.44L33.646 61.472C32.2273 61.6107 31.518 62.3413 31.518 63.664V67.296C31.518 67.84 31.246 68.112 30.702 68.112ZM38.2726 68.144C37.7286 68.144 37.2433 68.0373 36.8166 67.824C36.39 67.6107 36.0486 67.3227 35.7926 66.96C35.5473 66.5973 35.4246 66.1867 35.4246 65.728C35.4246 65.152 35.5686 64.6987 35.8566 64.368C36.1553 64.0373 36.6406 63.7973 37.3126 63.648C37.9953 63.4987 38.9126 63.424 40.0646 63.424H40.6086V63.008C40.6086 62.4 40.4806 61.9627 40.2246 61.696C39.9686 61.4293 39.5473 61.296 38.9606 61.296C38.6193 61.296 38.262 61.3387 37.8886 61.424C37.526 61.5093 37.1473 61.6533 36.7526 61.856C36.5286 61.9627 36.342 61.9787 36.1926 61.904C36.054 61.8293 35.958 61.712 35.9046 61.552C35.8513 61.392 35.8566 61.2267 35.9206 61.056C35.9846 60.8853 36.118 60.7573 36.3206 60.672C36.79 60.4587 37.254 60.304 37.7126 60.208C38.1713 60.1013 38.6033 60.048 39.0086 60.048C40.0753 60.048 40.8646 60.304 41.3766 60.816C41.8886 61.3173 42.1446 62.1067 42.1446 63.184V67.296C42.1446 67.84 41.894 68.112 41.3926 68.112C40.8806 68.112 40.6246 67.84 40.6246 67.296V66.704C40.4326 67.152 40.134 67.504 39.7286 67.76C39.3233 68.016 38.838 68.144 38.2726 68.144ZM38.5926 66.992C39.1686 66.992 39.6486 66.7893 40.0326 66.384C40.4166 65.9787 40.6086 65.4667 40.6086 64.848V64.416H40.0806C39.302 64.416 38.6886 64.4533 38.2406 64.528C37.8033 64.6027 37.4886 64.7307 37.2966 64.912C37.1153 65.0827 37.0246 65.3227 37.0246 65.632C37.0246 66.0373 37.1633 66.368 37.4406 66.624C37.718 66.8693 38.102 66.992 38.5926 66.992ZM45.1704 68.112C44.637 68.112 44.3704 67.84 44.3704 67.296V60.896C44.3704 60.352 44.6317 60.08 45.1544 60.08C45.677 60.08 45.9384 60.352 45.9384 60.896V61.488C46.205 61.0187 46.5677 60.6613 47.0264 60.416C47.4957 60.1707 48.0184 60.048 48.5944 60.048C50.4397 60.048 51.3624 61.0933 51.3624 63.184V67.296C51.3624 67.84 51.0957 68.112 50.5624 68.112C50.0184 68.112 49.7464 67.84 49.7464 67.296V63.28C49.7464 62.608 49.613 62.1173 49.3464 61.808C49.0904 61.4987 48.685 61.344 48.1304 61.344C47.4797 61.344 46.957 61.552 46.5624 61.968C46.1784 62.3733 45.9864 62.912 45.9864 63.584V67.296C45.9864 67.84 45.7144 68.112 45.1704 68.112ZM57.0291 68.144C56.2291 68.144 55.5358 67.9787 54.9491 67.648C54.3731 67.3067 53.9251 66.832 53.6051 66.224C53.2851 65.6053 53.1251 64.88 53.1251 64.048C53.1251 62.8107 53.4771 61.8347 54.1811 61.12C54.8851 60.4053 55.8345 60.048 57.0291 60.048C57.4025 60.048 57.7918 60.1067 58.1971 60.224C58.6131 60.3307 58.9971 60.512 59.3491 60.768C59.5198 60.8747 59.6158 61.0133 59.6371 61.184C59.6691 61.344 59.6425 61.4987 59.5571 61.648C59.4825 61.7867 59.3705 61.8827 59.2211 61.936C59.0718 61.9787 58.9011 61.9467 58.7091 61.84C58.4531 61.6587 58.1918 61.5307 57.9251 61.456C57.6585 61.3707 57.4025 61.328 57.1571 61.328C56.3998 61.328 55.8131 61.568 55.3971 62.048C54.9918 62.5173 54.7891 63.1893 54.7891 64.064C54.7891 64.9387 54.9918 65.6267 55.3971 66.128C55.8131 66.6187 56.3998 66.864 57.1571 66.864C57.4025 66.864 57.6531 66.8267 57.9091 66.752C58.1758 66.6773 58.4425 66.5493 58.7091 66.368C58.9011 66.2613 59.0665 66.2347 59.2051 66.288C59.3545 66.3413 59.4611 66.4427 59.5251 66.592C59.5998 66.7307 59.6211 66.8853 59.5891 67.056C59.5678 67.216 59.4718 67.3493 59.3011 67.456C58.9598 67.7013 58.5865 67.8773 58.1811 67.984C57.7865 68.0907 57.4025 68.144 57.0291 68.144ZM56.9811 71.104C56.7785 71.104 56.5705 71.088 56.3571 71.056C56.1438 71.024 55.9518 70.976 55.7811 70.912C55.5891 70.8373 55.4825 70.72 55.4611 70.56C55.4398 70.4107 55.4825 70.2773 55.5891 70.16C55.6958 70.0533 55.8451 70.0373 56.0371 70.112C56.2718 70.1973 56.5545 70.24 56.8851 70.24C57.1731 70.24 57.3971 70.192 57.5571 70.096C57.7171 70.0107 57.7971 69.8827 57.7971 69.712C57.7971 69.4347 57.5945 69.296 57.1891 69.296C57.1038 69.296 57.0185 69.296 56.9331 69.296C56.8585 69.3067 56.7731 69.328 56.6771 69.36C56.5171 69.4027 56.3945 69.392 56.3091 69.328C56.2238 69.264 56.1971 69.1307 56.2291 68.928L56.4211 67.68H57.3491L57.1891 68.656C57.2745 68.6453 57.3545 68.64 57.4291 68.64C57.8451 68.64 58.1811 68.736 58.4371 68.928C58.6931 69.1307 58.8211 69.408 58.8211 69.76C58.8211 70.1547 58.6505 70.4747 58.3091 70.72C57.9678 70.976 57.5251 71.104 56.9811 71.104ZM63.4914 68.144C62.9474 68.144 62.462 68.0373 62.0354 67.824C61.6087 67.6107 61.2674 67.3227 61.0114 66.96C60.766 66.5973 60.6434 66.1867 60.6434 65.728C60.6434 65.152 60.7874 64.6987 61.0754 64.368C61.374 64.0373 61.8594 63.7973 62.5314 63.648C63.214 63.4987 64.1314 63.424 65.2834 63.424H65.8274V63.008C65.8274 62.4 65.6994 61.9627 65.4434 61.696C65.1874 61.4293 64.766 61.296 64.1794 61.296C63.838 61.296 63.4807 61.3387 63.1074 61.424C62.7447 61.5093 62.366 61.6533 61.9714 61.856C61.7474 61.9627 61.5607 61.9787 61.4114 61.904C61.2727 61.8293 61.1767 61.712 61.1234 61.552C61.07 61.392 61.0754 61.2267 61.1394 61.056C61.2034 60.8853 61.3367 60.7573 61.5394 60.672C62.0087 60.4587 62.4727 60.304 62.9314 60.208C63.39 60.1013 63.822 60.048 64.2274 60.048C65.294 60.048 66.0834 60.304 66.5954 60.816C67.1074 61.3173 67.3634 62.1067 67.3634 63.184V67.296C67.3634 67.84 67.1127 68.112 66.6114 68.112C66.0994 68.112 65.8434 67.84 65.8434 67.296V66.704C65.6514 67.152 65.3527 67.504 64.9474 67.76C64.542 68.016 64.0567 68.144 63.4914 68.144ZM63.8114 66.992C64.3874 66.992 64.8674 66.7893 65.2514 66.384C65.6354 65.9787 65.8274 65.4667 65.8274 64.848V64.416H65.2994C64.5207 64.416 63.9074 64.4533 63.4594 64.528C63.022 64.6027 62.7074 64.7307 62.5154 64.912C62.334 65.0827 62.2434 65.3227 62.2434 65.632C62.2434 66.0373 62.382 66.368 62.6594 66.624C62.9367 66.8693 63.3207 66.992 63.8114 66.992ZM72.3251 68.144C71.8558 68.144 71.3705 68.0907 70.8691 67.984C70.3678 67.8773 69.9145 67.696 69.5091 67.44C69.3278 67.3333 69.2158 67.2 69.1731 67.04C69.1305 66.88 69.1411 66.7307 69.2051 66.592C69.2691 66.4533 69.3705 66.3573 69.5091 66.304C69.6585 66.24 69.8238 66.256 70.0051 66.352C70.4211 66.576 70.8211 66.736 71.2051 66.832C71.5891 66.928 71.9678 66.976 72.3411 66.976C72.9065 66.976 73.3331 66.8747 73.6211 66.672C73.9091 66.4693 74.0531 66.1973 74.0531 65.856C74.0531 65.5787 73.9571 65.3653 73.7651 65.216C73.5731 65.056 73.2851 64.9333 72.9011 64.848L71.3811 64.544C70.0371 64.2667 69.3651 63.5733 69.3651 62.464C69.3651 61.728 69.6585 61.1413 70.2451 60.704C70.8318 60.2667 71.5998 60.048 72.5491 60.048C73.5091 60.048 74.3358 60.2827 75.0291 60.752C75.1998 60.8587 75.3011 60.992 75.3331 61.152C75.3651 61.3013 75.3438 61.4453 75.2691 61.584C75.1945 61.712 75.0825 61.8027 74.9331 61.856C74.7945 61.9093 74.6291 61.888 74.4371 61.792C74.1171 61.6 73.7971 61.4613 73.4771 61.376C73.1571 61.28 72.8478 61.232 72.5491 61.232C71.9945 61.232 71.5731 61.3387 71.2851 61.552C70.9971 61.7547 70.8531 62.032 70.8531 62.384C70.8531 62.9173 71.2051 63.2587 71.9091 63.408L73.4291 63.712C74.1225 63.8507 74.6451 64.0853 74.9971 64.416C75.3598 64.7467 75.5411 65.1947 75.5411 65.76C75.5411 66.5067 75.2478 67.0933 74.6611 67.52C74.0745 67.936 73.2958 68.144 72.3251 68.144Z" fill="#343447"/>
</svg>
