<svg width="35" height="39" viewBox="0 0 35 39" fill="none" xmlns="http://www.w3.org/2000/svg">
<path d="M16.75 20.3965H13.25C12.1454 20.3965 11.25 19.5011 11.25 18.3965V7.89648C11.25 6.79191 12.1454 5.89648 13.25 5.89648H19.5L23.75 10.1465V12.3965" stroke="#DA0175" stroke-width="1.5" stroke-linecap="round" stroke-linejoin="round"/>
<path d="M22.5 15.8965V20.3965" stroke="#DA0175" stroke-width="1.5" stroke-linecap="round" stroke-linejoin="round"/>
<path d="M24.75 18.1465H20.25" stroke="#DA0175" stroke-width="1.5" stroke-linecap="round" stroke-linejoin="round"/>
<path d="M23.5 10.3965H19.25V6.14648" stroke="#DA0175" stroke-width="1.5" stroke-linecap="round" stroke-linejoin="round"/>
<path d="M3.184 33.2185C2.61333 33.2185 2.12533 33.1012 1.72 32.8665C1.31467 32.6318 1.00267 32.2985 0.784 31.8665C0.570667 31.4292 0.464 30.9145 0.464 30.3225C0.464 29.7305 0.570667 29.2185 0.784 28.7865C1.00267 28.3545 1.31467 28.0212 1.72 27.7865C2.12533 27.5518 2.61333 27.4345 3.184 27.4345C3.49867 27.4345 3.8 27.4772 4.088 27.5625C4.38133 27.6478 4.63467 27.7705 4.848 27.9305C4.96533 28.0052 5.032 28.0958 5.048 28.2025C5.06933 28.3038 5.05333 28.3972 5 28.4825C4.952 28.5625 4.88 28.6158 4.784 28.6425C4.688 28.6692 4.58133 28.6425 4.464 28.5625C4.28267 28.4292 4.08533 28.3305 3.872 28.2665C3.664 28.2025 3.44267 28.1705 3.208 28.1705C2.6 28.1705 2.136 28.3572 1.816 28.7305C1.496 29.1038 1.336 29.6345 1.336 30.3225C1.336 31.0105 1.496 31.5438 1.816 31.9225C2.136 32.2958 2.6 32.4825 3.208 32.4825C3.44267 32.4825 3.66667 32.4505 3.88 32.3865C4.09867 32.3225 4.304 32.2212 4.496 32.0825C4.61333 32.0078 4.71733 31.9838 4.808 32.0105C4.89867 32.0318 4.968 32.0825 5.016 32.1625C5.064 32.2425 5.08 32.3332 5.064 32.4345C5.048 32.5305 4.992 32.6132 4.896 32.6825C4.672 32.8585 4.41067 32.9918 4.112 33.0825C3.81867 33.1732 3.50933 33.2185 3.184 33.2185ZM7.389 33.2185C6.99433 33.2185 6.653 33.1358 6.365 32.9705C6.077 32.8052 5.853 32.5732 5.693 32.2745C5.53833 31.9705 5.461 31.6105 5.461 31.1945C5.461 30.7785 5.53833 30.4212 5.693 30.1225C5.853 29.8185 6.077 29.5838 6.365 29.4185C6.653 29.2532 6.99433 29.1705 7.389 29.1705C7.773 29.1705 8.109 29.2532 8.397 29.4185C8.685 29.5838 8.909 29.8185 9.069 30.1225C9.229 30.4212 9.309 30.7785 9.309 31.1945C9.309 31.6105 9.229 31.9705 9.069 32.2745C8.909 32.5732 8.685 32.8052 8.397 32.9705C8.109 33.1358 7.773 33.2185 7.389 33.2185ZM7.389 32.5945C7.71967 32.5945 7.98633 32.4745 8.189 32.2345C8.39167 31.9945 8.493 31.6478 8.493 31.1945C8.493 30.7412 8.39167 30.3972 8.189 30.1625C7.98633 29.9225 7.71967 29.8025 7.389 29.8025C7.053 29.8025 6.78367 29.9225 6.581 30.1625C6.37833 30.3972 6.277 30.7412 6.277 31.1945C6.277 31.6478 6.37833 31.9945 6.581 32.2345C6.78367 32.4745 7.053 32.5945 7.389 32.5945ZM12.3124 33.2185C12.0191 33.2185 11.7578 33.1545 11.5284 33.0265C11.2991 32.8932 11.1258 32.7145 11.0084 32.4905V32.7945C11.0084 33.0665 10.8778 33.2025 10.6164 33.2025C10.3498 33.2025 10.2164 33.0665 10.2164 32.7945V27.8585C10.2164 27.5865 10.3498 27.4505 10.6164 27.4505C10.8884 27.4505 11.0244 27.5865 11.0244 27.8585V29.8745C11.1418 29.6612 11.3124 29.4905 11.5364 29.3625C11.7658 29.2345 12.0244 29.1705 12.3124 29.1705C12.6591 29.1705 12.9604 29.2532 13.2164 29.4185C13.4778 29.5838 13.6778 29.8185 13.8164 30.1225C13.9604 30.4212 14.0324 30.7785 14.0324 31.1945C14.0324 31.6105 13.9604 31.9705 13.8164 32.2745C13.6778 32.5785 13.4778 32.8132 13.2164 32.9785C12.9604 33.1385 12.6591 33.2185 12.3124 33.2185ZM12.1124 32.5945C12.4484 32.5945 12.7151 32.4745 12.9124 32.2345C13.1151 31.9945 13.2164 31.6478 13.2164 31.1945C13.2164 30.7412 13.1151 30.3972 12.9124 30.1625C12.7151 29.9225 12.4484 29.8025 12.1124 29.8025C11.7764 29.8025 11.5071 29.9225 11.3044 30.1625C11.1071 30.3972 11.0084 30.7412 11.0084 31.1945C11.0084 31.6478 11.1071 31.9945 11.3044 32.2345C11.5071 32.4745 11.7764 32.5945 12.1124 32.5945ZM15.351 33.2025C15.079 33.2025 14.943 33.0665 14.943 32.7945V29.5945C14.943 29.3225 15.0737 29.1865 15.335 29.1865C15.5963 29.1865 15.727 29.3225 15.727 29.5945V29.9385C15.8337 29.6985 15.9937 29.5145 16.207 29.3865C16.4257 29.2585 16.6897 29.1838 16.999 29.1625C17.1963 29.1465 17.303 29.2532 17.319 29.4825C17.3403 29.7172 17.2257 29.8452 16.975 29.8665L16.823 29.8825C16.1137 29.9518 15.759 30.3172 15.759 30.9785V32.7945C15.759 33.0665 15.623 33.2025 15.351 33.2025ZM19.1363 33.2185C18.8643 33.2185 18.6216 33.1652 18.4083 33.0585C18.195 32.9518 18.0243 32.8078 17.8963 32.6265C17.7736 32.4452 17.7123 32.2398 17.7123 32.0105C17.7123 31.7225 17.7843 31.4958 17.9283 31.3305C18.0776 31.1652 18.3203 31.0452 18.6563 30.9705C18.9976 30.8958 19.4563 30.8585 20.0323 30.8585H20.3043V30.6505C20.3043 30.3465 20.2403 30.1278 20.1123 29.9945C19.9843 29.8612 19.7736 29.7945 19.4803 29.7945C19.3096 29.7945 19.131 29.8158 18.9443 29.8585C18.763 29.9012 18.5736 29.9732 18.3763 30.0745C18.2643 30.1278 18.171 30.1358 18.0963 30.0985C18.027 30.0612 17.979 30.0025 17.9523 29.9225C17.9256 29.8425 17.9283 29.7598 17.9603 29.6745C17.9923 29.5892 18.059 29.5252 18.1603 29.4825C18.395 29.3758 18.627 29.2985 18.8563 29.2505C19.0856 29.1972 19.3016 29.1705 19.5043 29.1705C20.0376 29.1705 20.4323 29.2985 20.6883 29.5545C20.9443 29.8052 21.0723 30.1998 21.0723 30.7385V32.7945C21.0723 33.0665 20.947 33.2025 20.6963 33.2025C20.4403 33.2025 20.3123 33.0665 20.3123 32.7945V32.4985C20.2163 32.7225 20.067 32.8985 19.8643 33.0265C19.6616 33.1545 19.419 33.2185 19.1363 33.2185ZM19.2963 32.6425C19.5843 32.6425 19.8243 32.5412 20.0163 32.3385C20.2083 32.1358 20.3043 31.8798 20.3043 31.5705V31.3545H20.0403C19.651 31.3545 19.3443 31.3732 19.1203 31.4105C18.9016 31.4478 18.7443 31.5118 18.6483 31.6025C18.5576 31.6878 18.5123 31.8078 18.5123 31.9625C18.5123 32.1652 18.5816 32.3305 18.7203 32.4585C18.859 32.5812 19.051 32.6425 19.2963 32.6425ZM22.5852 33.2025C22.3185 33.2025 22.1852 33.0665 22.1852 32.7945V29.5945C22.1852 29.3225 22.3159 29.1865 22.5772 29.1865C22.8385 29.1865 22.9692 29.3225 22.9692 29.5945V29.8905C23.1025 29.6558 23.2839 29.4772 23.5132 29.3545C23.7479 29.2318 24.0092 29.1705 24.2972 29.1705C25.2199 29.1705 25.6812 29.6932 25.6812 30.7385V32.7945C25.6812 33.0665 25.5479 33.2025 25.2812 33.2025C25.0092 33.2025 24.8732 33.0665 24.8732 32.7945V30.7865C24.8732 30.4505 24.8065 30.2052 24.6732 30.0505C24.5452 29.8958 24.3425 29.8185 24.0652 29.8185C23.7399 29.8185 23.4785 29.9225 23.2812 30.1305C23.0892 30.3332 22.9932 30.6025 22.9932 30.9385V32.7945C22.9932 33.0665 22.8572 33.2025 22.5852 33.2025ZM28.5146 33.2185C28.1146 33.2185 27.7679 33.1358 27.4746 32.9705C27.1866 32.7998 26.9626 32.5625 26.8026 32.2585C26.6426 31.9492 26.5626 31.5865 26.5626 31.1705C26.5626 30.5518 26.7386 30.0638 27.0906 29.7065C27.4426 29.3492 27.9172 29.1705 28.5146 29.1705C28.7012 29.1705 28.8959 29.1998 29.0986 29.2585C29.3066 29.3118 29.4986 29.4025 29.6746 29.5305C29.7599 29.5838 29.8079 29.6532 29.8186 29.7385C29.8346 29.8185 29.8212 29.8958 29.7786 29.9705C29.7412 30.0398 29.6852 30.0878 29.6106 30.1145C29.5359 30.1358 29.4506 30.1198 29.3546 30.0665C29.2266 29.9758 29.0959 29.9118 28.9626 29.8745C28.8292 29.8318 28.7012 29.8105 28.5786 29.8105C28.1999 29.8105 27.9066 29.9305 27.6986 30.1705C27.4959 30.4052 27.3946 30.7412 27.3946 31.1785C27.3946 31.6158 27.4959 31.9598 27.6986 32.2105C27.9066 32.4558 28.1999 32.5785 28.5786 32.5785C28.7012 32.5785 28.8266 32.5598 28.9546 32.5225C29.0879 32.4852 29.2212 32.4212 29.3546 32.3305C29.4506 32.2772 29.5332 32.2638 29.6026 32.2905C29.6772 32.3172 29.7306 32.3678 29.7626 32.4425C29.7999 32.5118 29.8106 32.5892 29.7946 32.6745C29.7839 32.7545 29.7359 32.8212 29.6506 32.8745C29.4799 32.9972 29.2932 33.0852 29.0906 33.1385C28.8932 33.1918 28.7012 33.2185 28.5146 33.2185ZM28.4906 34.6985C28.3892 34.6985 28.2852 34.6905 28.1786 34.6745C28.0719 34.6585 27.9759 34.6345 27.8906 34.6025C27.7946 34.5652 27.7412 34.5065 27.7306 34.4265C27.7199 34.3518 27.7412 34.2852 27.7946 34.2265C27.8479 34.1732 27.9226 34.1652 28.0186 34.2025C28.1359 34.2452 28.2772 34.2665 28.4426 34.2665C28.5866 34.2665 28.6986 34.2425 28.7786 34.1945C28.8586 34.1518 28.8986 34.0878 28.8986 34.0025C28.8986 33.8638 28.7972 33.7945 28.5946 33.7945C28.5519 33.7945 28.5092 33.7945 28.4666 33.7945C28.4292 33.7998 28.3866 33.8105 28.3386 33.8265C28.2586 33.8478 28.1972 33.8425 28.1546 33.8105C28.1119 33.7785 28.0986 33.7118 28.1146 33.6105L28.2106 32.9865H28.6746L28.5946 33.4745C28.6372 33.4692 28.6772 33.4665 28.7146 33.4665C28.9226 33.4665 29.0906 33.5145 29.2186 33.6105C29.3466 33.7118 29.4106 33.8505 29.4106 34.0265C29.4106 34.2238 29.3252 34.3838 29.1546 34.5065C28.9839 34.6345 28.7626 34.6985 28.4906 34.6985ZM31.7457 33.2185C31.4737 33.2185 31.231 33.1652 31.0177 33.0585C30.8044 32.9518 30.6337 32.8078 30.5057 32.6265C30.383 32.4452 30.3217 32.2398 30.3217 32.0105C30.3217 31.7225 30.3937 31.4958 30.5377 31.3305C30.687 31.1652 30.9297 31.0452 31.2657 30.9705C31.607 30.8958 32.0657 30.8585 32.6417 30.8585H32.9137V30.6505C32.9137 30.3465 32.8497 30.1278 32.7217 29.9945C32.5937 29.8612 32.383 29.7945 32.0897 29.7945C31.919 29.7945 31.7404 29.8158 31.5537 29.8585C31.3724 29.9012 31.183 29.9732 30.9857 30.0745C30.8737 30.1278 30.7804 30.1358 30.7057 30.0985C30.6364 30.0612 30.5884 30.0025 30.5617 29.9225C30.535 29.8425 30.5377 29.7598 30.5697 29.6745C30.6017 29.5892 30.6684 29.5252 30.7697 29.4825C31.0044 29.3758 31.2364 29.2985 31.4657 29.2505C31.695 29.1972 31.911 29.1705 32.1137 29.1705C32.647 29.1705 33.0417 29.2985 33.2977 29.5545C33.5537 29.8052 33.6817 30.1998 33.6817 30.7385V32.7945C33.6817 33.0665 33.5564 33.2025 33.3057 33.2025C33.0497 33.2025 32.9217 33.0665 32.9217 32.7945V32.4985C32.8257 32.7225 32.6764 32.8985 32.4737 33.0265C32.271 33.1545 32.0284 33.2185 31.7457 33.2185ZM31.9057 32.6425C32.1937 32.6425 32.4337 32.5412 32.6257 32.3385C32.8177 32.1358 32.9137 31.8798 32.9137 31.5705V31.3545H32.6497C32.2604 31.3545 31.9537 31.3732 31.7297 31.4105C31.511 31.4478 31.3537 31.5118 31.2577 31.6025C31.167 31.6878 31.1217 31.8078 31.1217 31.9625C31.1217 32.1652 31.191 32.3305 31.3297 32.4585C31.4684 32.5812 31.6604 32.6425 31.9057 32.6425Z" fill="#DA0175"/>
</svg>
