<svg width="22" height="31" viewBox="0 0 22 31" fill="none" xmlns="http://www.w3.org/2000/svg">
<path d="M3.75 15.2501L8 14.2501L17.2929 4.9572C17.6834 4.56667 17.6834 3.93351 17.2929 3.54298L15.4571 1.7072C15.0666 1.31667 14.4334 1.31667 14.0429 1.7072L4.75 11.0001L3.75 15.2501Z" stroke="#747488" stroke-width="1.5" stroke-linecap="round" stroke-linejoin="round"/>
<path d="M18.25 15.25H12.75" stroke="#747488" stroke-width="1.5" stroke-linecap="round" stroke-linejoin="round"/>
<path d="M1.104 28C0.805333 28 0.656 27.8507 0.656 27.552V22.808C0.656 22.5093 0.805333 22.36 1.104 22.36H4.024C4.25333 22.36 4.368 22.4693 4.368 22.688C4.368 22.9173 4.25333 23.032 4.024 23.032H1.456V24.8H3.848C4.07733 24.8 4.192 24.912 4.192 25.136C4.192 25.36 4.07733 25.472 3.848 25.472H1.456V27.328H4.024C4.25333 27.328 4.368 27.44 4.368 27.664C4.368 27.888 4.25333 28 4.024 28H1.104ZM6.73569 28.072C6.39435 28.072 6.09302 27.992 5.83169 27.832C5.57569 27.6667 5.37569 27.432 5.23169 27.128C5.08769 26.824 5.01569 26.464 5.01569 26.048C5.01569 25.632 5.08769 25.2747 5.23169 24.976C5.37569 24.672 5.57569 24.4373 5.83169 24.272C6.08769 24.1067 6.38902 24.024 6.73569 24.024C7.02902 24.024 7.29035 24.088 7.51969 24.216C7.74902 24.344 7.91969 24.5173 8.03169 24.736V22.712C8.03169 22.44 8.16502 22.304 8.43169 22.304C8.70369 22.304 8.83969 22.44 8.83969 22.712V27.648C8.83969 27.92 8.70635 28.056 8.43969 28.056C8.17302 28.056 8.03969 27.92 8.03969 27.648V27.344C7.92235 27.568 7.74902 27.7467 7.51969 27.88C7.29035 28.008 7.02902 28.072 6.73569 28.072ZM6.94369 27.448C7.27435 27.448 7.54102 27.328 7.74369 27.088C7.94635 26.848 8.04769 26.5013 8.04769 26.048C8.04769 25.5947 7.94635 25.2507 7.74369 25.016C7.54102 24.776 7.27435 24.656 6.94369 24.656C6.60769 24.656 6.33835 24.776 6.13569 25.016C5.93302 25.2507 5.83169 25.5947 5.83169 26.048C5.83169 26.5013 5.93302 26.848 6.13569 27.088C6.33835 27.328 6.60769 27.448 6.94369 27.448ZM10.3743 23.224C10.2143 23.224 10.0889 23.184 9.99825 23.104C9.91292 23.024 9.87025 22.912 9.87025 22.768C9.87025 22.464 10.0383 22.312 10.3743 22.312C10.7103 22.312 10.8783 22.464 10.8783 22.768C10.8783 23.072 10.7103 23.224 10.3743 23.224ZM10.3743 28.048C10.1076 28.048 9.97425 27.9013 9.97425 27.608V24.488C9.97425 24.2 10.1076 24.056 10.3743 24.056C10.6463 24.056 10.7823 24.2 10.7823 24.488V27.608C10.7823 27.9013 10.6463 28.048 10.3743 28.048ZM13.5836 28.072C13.0929 28.072 12.7276 27.9467 12.4876 27.696C12.2476 27.4453 12.1276 27.0827 12.1276 26.608V24.72H11.6476C11.4236 24.72 11.3116 24.616 11.3116 24.408C11.3116 24.2 11.4236 24.096 11.6476 24.096H12.1276V23.272C12.1276 23 12.2636 22.864 12.5356 22.864C12.8022 22.864 12.9356 23 12.9356 23.272V24.096H13.8716C14.0956 24.096 14.2076 24.2 14.2076 24.408C14.2076 24.616 14.0956 24.72 13.8716 24.72H12.9356V26.544C12.9356 26.8267 12.9942 27.04 13.1116 27.184C13.2342 27.328 13.4316 27.4 13.7036 27.4C13.7996 27.4 13.8822 27.392 13.9516 27.376C14.0209 27.3547 14.0822 27.3413 14.1356 27.336C14.1942 27.336 14.2422 27.3573 14.2796 27.4C14.3169 27.4373 14.3356 27.512 14.3356 27.624C14.3356 27.7093 14.3196 27.7867 14.2876 27.856C14.2609 27.92 14.2102 27.9627 14.1356 27.984C14.0716 28.0107 13.9836 28.032 13.8716 28.048C13.7649 28.064 13.6689 28.072 13.5836 28.072ZM16.0894 28.072C15.8174 28.072 15.5748 28.0187 15.3614 27.912C15.1481 27.8053 14.9774 27.6613 14.8494 27.48C14.7268 27.2987 14.6654 27.0933 14.6654 26.864C14.6654 26.576 14.7374 26.3493 14.8814 26.184C15.0308 26.0187 15.2734 25.8987 15.6094 25.824C15.9508 25.7493 16.4094 25.712 16.9854 25.712H17.2574V25.504C17.2574 25.2 17.1934 24.9813 17.0654 24.848C16.9374 24.7147 16.7268 24.648 16.4334 24.648C16.2628 24.648 16.0841 24.6693 15.8974 24.712C15.7161 24.7547 15.5268 24.8267 15.3294 24.928C15.2174 24.9813 15.1241 24.9893 15.0494 24.952C14.9801 24.9147 14.9321 24.856 14.9054 24.776C14.8788 24.696 14.8814 24.6133 14.9134 24.528C14.9454 24.4427 15.0121 24.3787 15.1134 24.336C15.3481 24.2293 15.5801 24.152 15.8094 24.104C16.0388 24.0507 16.2548 24.024 16.4574 24.024C16.9908 24.024 17.3854 24.152 17.6414 24.408C17.8974 24.6587 18.0254 25.0533 18.0254 25.592V27.648C18.0254 27.92 17.9001 28.056 17.6494 28.056C17.3934 28.056 17.2654 27.92 17.2654 27.648V27.352C17.1694 27.576 17.0201 27.752 16.8174 27.88C16.6148 28.008 16.3721 28.072 16.0894 28.072ZM16.2494 27.496C16.5374 27.496 16.7774 27.3947 16.9694 27.192C17.1614 26.9893 17.2574 26.7333 17.2574 26.424V26.208H16.9934C16.6041 26.208 16.2974 26.2267 16.0734 26.264C15.8548 26.3013 15.6974 26.3653 15.6014 26.456C15.5108 26.5413 15.4654 26.6613 15.4654 26.816C15.4654 27.0187 15.5348 27.184 15.6734 27.312C15.8121 27.4347 16.0041 27.496 16.2494 27.496ZM19.5463 28.056C19.2743 28.056 19.1383 27.92 19.1383 27.648V24.448C19.1383 24.176 19.269 24.04 19.5303 24.04C19.7916 24.04 19.9223 24.176 19.9223 24.448V24.792C20.029 24.552 20.189 24.368 20.4023 24.24C20.621 24.112 20.885 24.0373 21.1943 24.016C21.3916 24 21.4983 24.1067 21.5143 24.336C21.5356 24.5707 21.421 24.6987 21.1703 24.72L21.0183 24.736C20.309 24.8053 19.9543 25.1707 19.9543 25.832V27.648C19.9543 27.92 19.8183 28.056 19.5463 28.056Z" fill="#747488"/>
</svg>
