<svg width="24" height="35" viewBox="0 0 24 35" fill="none" xmlns="http://www.w3.org/2000/svg">
<path d="M15.75 8.75L19.25 12L15.75 15.25" stroke="#747488" stroke-width="1.5" stroke-linecap="round" stroke-linejoin="round"/>
<path d="M19 12H10.75" stroke="#747488" stroke-width="1.5" stroke-linecap="round" stroke-linejoin="round"/>
<path d="M15.25 4.75H6.75C5.64543 4.75 4.75 5.64543 4.75 6.75V17.25C4.75 18.3546 5.64543 19.25 6.75 19.25H15.25" stroke="#747488" stroke-width="1.5" stroke-linecap="round" stroke-linejoin="round"/>
<path d="M7.036 32.072C6.668 32.072 6.31333 32.0293 5.972 31.944C5.636 31.8587 5.34267 31.7307 5.092 31.56C4.99067 31.4907 4.92933 31.408 4.908 31.312C4.88667 31.2107 4.89467 31.12 4.932 31.04C4.97467 30.9547 5.036 30.896 5.116 30.864C5.20133 30.832 5.29733 30.8507 5.404 30.92C5.644 31.0747 5.89733 31.1893 6.164 31.264C6.43067 31.3333 6.72133 31.368 7.036 31.368C7.48933 31.368 7.82267 31.288 8.036 31.128C8.25467 30.9627 8.364 30.7493 8.364 30.488C8.364 30.2747 8.28667 30.1067 8.132 29.984C7.97733 29.856 7.71867 29.7547 7.356 29.68L6.5 29.504C5.99333 29.3973 5.61467 29.2213 5.364 28.976C5.11867 28.7307 4.996 28.4 4.996 27.984C4.996 27.648 5.084 27.352 5.26 27.096C5.44133 26.84 5.692 26.6427 6.012 26.504C6.332 26.36 6.7 26.288 7.116 26.288C7.44667 26.288 7.756 26.3307 8.044 26.416C8.33733 26.5013 8.59867 26.632 8.828 26.808C8.91867 26.872 8.972 26.9493 8.988 27.04C9.004 27.1307 8.99067 27.216 8.948 27.296C8.90533 27.3707 8.84133 27.4213 8.756 27.448C8.67067 27.4747 8.572 27.4533 8.46 27.384C8.252 27.2453 8.03867 27.1467 7.82 27.088C7.60133 27.024 7.364 26.992 7.108 26.992C6.71333 26.992 6.39867 27.08 6.164 27.256C5.93467 27.432 5.82 27.6667 5.82 27.96C5.82 28.184 5.892 28.3627 6.036 28.496C6.18 28.6293 6.42 28.7307 6.756 28.8L7.604 28.976C8.13733 29.088 8.53467 29.2613 8.796 29.496C9.05733 29.7253 9.188 30.0373 9.188 30.432C9.188 30.7627 9.1 31.0507 8.924 31.296C8.748 31.5413 8.5 31.7333 8.18 31.872C7.86 32.0053 7.47867 32.072 7.036 32.072ZM11.2926 32.072C11.0206 32.072 10.7779 32.0187 10.5646 31.912C10.3512 31.8053 10.1806 31.6613 10.0526 31.48C9.9299 31.2987 9.86856 31.0933 9.86856 30.864C9.86856 30.576 9.94056 30.3493 10.0846 30.184C10.2339 30.0187 10.4766 29.8987 10.8126 29.824C11.1539 29.7493 11.6126 29.712 12.1886 29.712H12.4606V29.504C12.4606 29.2 12.3966 28.9813 12.2686 28.848C12.1406 28.7147 11.9299 28.648 11.6366 28.648C11.4659 28.648 11.2872 28.6693 11.1006 28.712C10.9192 28.7547 10.7299 28.8267 10.5326 28.928C10.4206 28.9813 10.3272 28.9893 10.2526 28.952C10.1832 28.9147 10.1352 28.856 10.1086 28.776C10.0819 28.696 10.0846 28.6133 10.1166 28.528C10.1486 28.4427 10.2152 28.3787 10.3166 28.336C10.5512 28.2293 10.7832 28.152 11.0126 28.104C11.2419 28.0507 11.4579 28.024 11.6606 28.024C12.1939 28.024 12.5886 28.152 12.8446 28.408C13.1006 28.6587 13.2286 29.0533 13.2286 29.592V31.648C13.2286 31.92 13.1032 32.056 12.8526 32.056C12.5966 32.056 12.4686 31.92 12.4686 31.648V31.352C12.3726 31.576 12.2232 31.752 12.0206 31.88C11.8179 32.008 11.5752 32.072 11.2926 32.072ZM11.4526 31.496C11.7406 31.496 11.9806 31.3947 12.1726 31.192C12.3646 30.9893 12.4606 30.7333 12.4606 30.424V30.208H12.1966C11.8072 30.208 11.5006 30.2267 11.2766 30.264C11.0579 30.3013 10.9006 30.3653 10.8046 30.456C10.7139 30.5413 10.6686 30.6613 10.6686 30.816C10.6686 31.0187 10.7379 31.184 10.8766 31.312C11.0152 31.4347 11.2072 31.496 11.4526 31.496ZM14.7414 27.224C14.5814 27.224 14.4561 27.184 14.3654 27.104C14.2801 27.024 14.2374 26.912 14.2374 26.768C14.2374 26.464 14.4054 26.312 14.7414 26.312C15.0774 26.312 15.2454 26.464 15.2454 26.768C15.2454 27.072 15.0774 27.224 14.7414 27.224ZM14.7414 32.048C14.4748 32.048 14.3414 31.9013 14.3414 31.608V28.488C14.3414 28.2 14.4748 28.056 14.7414 28.056C15.0134 28.056 15.1494 28.2 15.1494 28.488V31.608C15.1494 31.9013 15.0134 32.048 14.7414 32.048ZM16.6948 32.056C16.4228 32.056 16.2868 31.92 16.2868 31.648V28.448C16.2868 28.176 16.4174 28.04 16.6788 28.04C16.9401 28.04 17.0708 28.176 17.0708 28.448V28.792C17.1774 28.552 17.3374 28.368 17.5508 28.24C17.7694 28.112 18.0334 28.0373 18.3428 28.016C18.5401 28 18.6468 28.1067 18.6628 28.336C18.6841 28.5707 18.5694 28.6987 18.3188 28.72L18.1668 28.736C17.4574 28.8053 17.1028 29.1707 17.1028 29.832V31.648C17.1028 31.92 16.9668 32.056 16.6948 32.056Z" fill="#747488"/>
</svg>
