<svg width="49" height="74" viewBox="0 0 49 74" fill="none" xmlns="http://www.w3.org/2000/svg">
<path d="M14 38.5004H34.9999C37.2091 38.5004 38.9999 36.7096 38.9999 34.5004V19.5005L24.4999 9.50049L10 19.5005V34.5004C10 36.7096 11.7909 38.5004 14 38.5004Z" stroke="#DA0175" stroke-width="1.5" stroke-linecap="round" stroke-linejoin="round"/>
<path d="M20 31.4985C20 29.2893 21.7909 27.4985 23.9999 27.4985H24.9999C27.2091 27.4985 28.9999 29.2893 28.9999 31.4985V38.4985H20V31.4985Z" stroke="#DA0175" stroke-width="1.5" stroke-linecap="round" stroke-linejoin="round"/>
<path d="M4.644 68.112C4.08933 68.112 3.812 67.8293 3.812 67.264V57.456C3.812 56.8907 4.08933 56.608 4.644 56.608C5.19867 56.608 5.476 56.8907 5.476 57.456V61.584H11.796V57.456C11.796 56.8907 12.0733 56.608 12.628 56.608C13.172 56.608 13.444 56.8907 13.444 57.456V67.264C13.444 67.8293 13.172 68.112 12.628 68.112C12.0733 68.112 11.796 67.8293 11.796 67.264V62.976H5.476V67.264C5.476 67.8293 5.19867 68.112 4.644 68.112ZM19.2936 68.144C18.5043 68.144 17.8216 67.9787 17.2456 67.648C16.6696 67.3173 16.2216 66.8533 15.9016 66.256C15.5923 65.648 15.4376 64.928 15.4376 64.096C15.4376 63.264 15.5923 62.5493 15.9016 61.952C16.2216 61.344 16.6696 60.8747 17.2456 60.544C17.8216 60.2133 18.5043 60.048 19.2936 60.048C20.0616 60.048 20.7336 60.2133 21.3096 60.544C21.8856 60.8747 22.3336 61.344 22.6536 61.952C22.9736 62.5493 23.1336 63.264 23.1336 64.096C23.1336 64.928 22.9736 65.648 22.6536 66.256C22.3336 66.8533 21.8856 67.3173 21.3096 67.648C20.7336 67.9787 20.0616 68.144 19.2936 68.144ZM19.2936 66.896C19.955 66.896 20.4883 66.656 20.8936 66.176C21.299 65.696 21.5016 65.0027 21.5016 64.096C21.5016 63.1893 21.299 62.5013 20.8936 62.032C20.4883 61.552 19.955 61.312 19.2936 61.312C18.6216 61.312 18.083 61.552 17.6776 62.032C17.2723 62.5013 17.0696 63.1893 17.0696 64.096C17.0696 65.0027 17.2723 65.696 17.6776 66.176C18.083 66.656 18.6216 66.896 19.2936 66.896ZM25.7805 68.112C25.2472 68.112 24.9805 67.84 24.9805 67.296V60.896C24.9805 60.352 25.2418 60.08 25.7645 60.08C26.2872 60.08 26.5485 60.352 26.5485 60.896V61.456C26.7832 61.008 27.1085 60.6613 27.5245 60.416C27.9405 60.1707 28.4258 60.048 28.9805 60.048C30.1752 60.048 30.9485 60.5707 31.3005 61.616C31.5458 61.1253 31.8978 60.7413 32.3565 60.464C32.8152 60.1867 33.3378 60.048 33.9245 60.048C35.6738 60.048 36.5485 61.0933 36.5485 63.184V67.296C36.5485 67.84 36.2765 68.112 35.7325 68.112C35.1992 68.112 34.9325 67.84 34.9325 67.296V63.264C34.9325 62.6027 34.8152 62.1173 34.5805 61.808C34.3565 61.4987 33.9832 61.344 33.4605 61.344C32.8738 61.344 32.4098 61.552 32.0685 61.968C31.7272 62.3733 31.5565 62.928 31.5565 63.632V67.296C31.5565 67.84 31.2898 68.112 30.7565 68.112C30.2125 68.112 29.9405 67.84 29.9405 67.296V63.264C29.9405 62.6027 29.8285 62.1173 29.6045 61.808C29.3805 61.4987 29.0072 61.344 28.4845 61.344C27.8978 61.344 27.4338 61.552 27.0925 61.968C26.7618 62.3733 26.5965 62.928 26.5965 63.632V67.296C26.5965 67.84 26.3245 68.112 25.7805 68.112ZM42.4719 68.144C41.1919 68.144 40.1839 67.7867 39.4479 67.072C38.7119 66.3467 38.3439 65.36 38.3439 64.112C38.3439 63.312 38.5039 62.608 38.8239 62C39.1545 61.3813 39.6079 60.9013 40.1839 60.56C40.7599 60.2187 41.4212 60.048 42.1679 60.048C43.2452 60.048 44.0932 60.3947 44.7119 61.088C45.3305 61.7707 45.6399 62.7147 45.6399 63.92C45.6399 64.2827 45.4265 64.464 44.9999 64.464H39.9119C40.0292 66.0853 40.8879 66.896 42.4879 66.896C42.8079 66.896 43.1439 66.8587 43.4959 66.784C43.8479 66.6987 44.1892 66.5493 44.5199 66.336C44.7439 66.208 44.9359 66.1653 45.0959 66.208C45.2665 66.24 45.3892 66.3307 45.4639 66.48C45.5385 66.6187 45.5492 66.7787 45.4959 66.96C45.4532 67.1307 45.3305 67.28 45.1279 67.408C44.7652 67.6533 44.3385 67.84 43.8479 67.968C43.3679 68.0853 42.9092 68.144 42.4719 68.144ZM42.2319 61.184C41.5599 61.184 41.0265 61.392 40.6319 61.808C40.2372 62.224 39.9972 62.7787 39.9119 63.472H44.2799C44.2479 62.7467 44.0559 62.1867 43.7039 61.792C43.3519 61.3867 42.8612 61.184 42.2319 61.184Z" fill="#DA0175"/>
</svg>
