<svg width="32" height="193" viewBox="0 0 32 193" fill="none" xmlns="http://www.w3.org/2000/svg">
<circle cx="16" cy="16.5" r="16" fill="#0E8750"/>
<path fill-rule="evenodd" clip-rule="evenodd" d="M23.7016 10.7165C24.0686 11.031 24.1016 11.5728 23.7755 11.9266L14.294 22.2123C14.1253 22.3953 13.8835 22.5 13.6296 22.5C13.3757 22.5 13.134 22.3953 12.9653 22.2123L8.22453 17.0695C7.89839 16.7156 7.93143 16.1739 8.29835 15.8594C8.66527 15.5449 9.22711 15.5767 9.55326 15.9306L13.6296 20.3527L22.4467 10.7877C22.7729 10.4339 23.3347 10.402 23.7016 10.7165Z" fill="#F8F8F9"/>
<line x1="17.5" y1="36.5" x2="17.5" y2="76.5" stroke="#0E8750" stroke-width="3"/>
<circle cx="16" cy="96.5" r="16" fill="#0E8750"/>
<circle cx="16.0008" cy="96.5" r="3.2" fill="#F0F0F5"/>
<line x1="17.5" y1="116.5" x2="17.5" y2="156.5" stroke="#0E8750" stroke-width="3"/>
<circle cx="16" cy="176.5" r="15.5" fill="#F0F0F5" stroke="#0E8750"/>
<circle cx="16.0008" cy="176.5" r="2.7" fill="#0E8750" stroke="#0E8750"/>
</svg>
